<mxfile host="app.diagrams.net" modified="2024-02-29T11:23:01.686Z" agent="Mozilla/5.0 (Macintosh; Intel Mac OS X 10_15_7) AppleWebKit/537.36 (KHTML, like Gecko) Chrome/123.0.0.0 Safari/537.36" etag="8AhhYObuylexsX1kyM49" version="23.1.8" type="device">
  <diagram name="Page-1" id="1Lg70NxdFYEdoyPPMmao">
    <mxGraphModel dx="1175" dy="447" grid="1" gridSize="10" guides="1" tooltips="1" connect="1" arrows="1" fold="1" page="1" pageScale="1" pageWidth="827" pageHeight="1169" math="0" shadow="0">
      <root>
        <mxCell id="0" />
        <mxCell id="1" parent="0" />
        <mxCell id="yEhgWMu11Ze8Wl3MYyZs-28" value="" style="rounded=0;whiteSpace=wrap;html=1;dashed=1;dashPattern=12 12;fillColor=#ffe6cc;strokeColor=#d79b00;" parent="1" vertex="1">
          <mxGeometry x="401" y="237" width="99" height="45" as="geometry" />
        </mxCell>
        <mxCell id="yEhgWMu11Ze8Wl3MYyZs-27" value="" style="rounded=0;whiteSpace=wrap;html=1;dashed=1;dashPattern=12 12;fillColor=#d5e8d4;strokeColor=#82b366;" parent="1" vertex="1">
          <mxGeometry x="241" y="237" width="157" height="45" as="geometry" />
        </mxCell>
        <mxCell id="yEhgWMu11Ze8Wl3MYyZs-26" value="" style="rounded=0;whiteSpace=wrap;html=1;dashed=1;dashPattern=12 12;fillColor=#dae8fc;strokeColor=#6c8ebf;" parent="1" vertex="1">
          <mxGeometry x="80" y="237" width="158" height="45" as="geometry" />
        </mxCell>
        <mxCell id="yEhgWMu11Ze8Wl3MYyZs-1" value="Data" style="rounded=1;whiteSpace=wrap;html=1;" parent="1" vertex="1">
          <mxGeometry x="84" y="240" width="30" height="40" as="geometry" />
        </mxCell>
        <mxCell id="yEhgWMu11Ze8Wl3MYyZs-2" value="Data" style="rounded=1;whiteSpace=wrap;html=1;" parent="1" vertex="1">
          <mxGeometry x="124" y="240" width="30" height="40" as="geometry" />
        </mxCell>
        <mxCell id="yEhgWMu11Ze8Wl3MYyZs-3" value="Data" style="rounded=1;whiteSpace=wrap;html=1;" parent="1" vertex="1">
          <mxGeometry x="164" y="240" width="30" height="40" as="geometry" />
        </mxCell>
        <mxCell id="yEhgWMu11Ze8Wl3MYyZs-4" value="Data" style="rounded=1;whiteSpace=wrap;html=1;" parent="1" vertex="1">
          <mxGeometry x="204" y="240" width="30" height="40" as="geometry" />
        </mxCell>
        <mxCell id="yEhgWMu11Ze8Wl3MYyZs-5" value="Data" style="rounded=1;whiteSpace=wrap;html=1;" parent="1" vertex="1">
          <mxGeometry x="244" y="240" width="30" height="40" as="geometry" />
        </mxCell>
        <mxCell id="yEhgWMu11Ze8Wl3MYyZs-6" value="Data" style="rounded=1;whiteSpace=wrap;html=1;" parent="1" vertex="1">
          <mxGeometry x="284" y="240" width="30" height="40" as="geometry" />
        </mxCell>
        <mxCell id="yEhgWMu11Ze8Wl3MYyZs-7" value="Data" style="rounded=1;whiteSpace=wrap;html=1;" parent="1" vertex="1">
          <mxGeometry x="324" y="240" width="30" height="40" as="geometry" />
        </mxCell>
        <mxCell id="yEhgWMu11Ze8Wl3MYyZs-8" value="Data" style="rounded=1;whiteSpace=wrap;html=1;" parent="1" vertex="1">
          <mxGeometry x="364" y="240" width="30" height="40" as="geometry" />
        </mxCell>
        <mxCell id="yEhgWMu11Ze8Wl3MYyZs-9" value="Data" style="rounded=1;whiteSpace=wrap;html=1;" parent="1" vertex="1">
          <mxGeometry x="404" y="240" width="30" height="40" as="geometry" />
        </mxCell>
        <mxCell id="yEhgWMu11Ze8Wl3MYyZs-17" value="" style="endArrow=none;html=1;rounded=0;" parent="1" edge="1">
          <mxGeometry width="50" height="50" relative="1" as="geometry">
            <mxPoint x="84" y="290" as="sourcePoint" />
            <mxPoint x="500" y="290" as="targetPoint" />
            <Array as="points" />
          </mxGeometry>
        </mxCell>
        <mxCell id="yEhgWMu11Ze8Wl3MYyZs-18" value="9:00" style="text;html=1;strokeColor=none;fillColor=none;align=center;verticalAlign=middle;whiteSpace=wrap;rounded=0;" parent="1" vertex="1">
          <mxGeometry x="74" y="291" width="30" height="10" as="geometry" />
        </mxCell>
        <mxCell id="yEhgWMu11Ze8Wl3MYyZs-20" value="10:00" style="text;html=1;strokeColor=none;fillColor=none;align=center;verticalAlign=middle;whiteSpace=wrap;rounded=0;" parent="1" vertex="1">
          <mxGeometry x="234" y="291" width="30" height="10" as="geometry" />
        </mxCell>
        <mxCell id="yEhgWMu11Ze8Wl3MYyZs-22" value="11:00" style="text;html=1;strokeColor=none;fillColor=none;align=center;verticalAlign=middle;whiteSpace=wrap;rounded=0;" parent="1" vertex="1">
          <mxGeometry x="394" y="291" width="30" height="10" as="geometry" />
        </mxCell>
        <mxCell id="yEhgWMu11Ze8Wl3MYyZs-30" value="" style="shape=flexArrow;endArrow=classic;html=1;rounded=0;" parent="1" edge="1">
          <mxGeometry width="50" height="50" relative="1" as="geometry">
            <mxPoint x="450" y="260.20000000000005" as="sourcePoint" />
            <mxPoint x="500" y="260.20000000000005" as="targetPoint" />
          </mxGeometry>
        </mxCell>
      </root>
    </mxGraphModel>
  </diagram>
</mxfile>
